<svg xmlns="http://www.w3.org/2000/svg" xmlns:xlink="http://www.w3.org/1999/xlink" width="2000" zoomAndPan="magnify" viewBox="0 0 1500 599.999999" height="800" preserveAspectRatio="xMidYMid meet" version="1.0"><defs><g/><clipPath id="e68f807e44"><path d="M 0.75 53 L 309 53 L 309 475 L 0.75 475 Z M 0.75 53 " clip-rule="nonzero"/></clipPath><clipPath id="c41643f1db"><path d="M 339 0 L 355.5 0 L 355.5 600 L 339 600 Z M 339 0 " clip-rule="nonzero"/></clipPath></defs><g clip-path="url(#e68f807e44)"><path fill="#ffffff" d="M 0.992188 162.546875 L 0.992188 435.941406 C 0.992188 457.386719 18.546875 474.941406 39.992188 474.941406 L 175.890625 474.941406 C 154.316406 446.820312 141.503906 411.640625 141.503906 373.476562 C 141.503906 281.335938 216.1875 206.648438 308.328125 206.648438 L 308.328125 53.328125 L 248.386719 53.328125 C 235.300781 53.328125 223.195312 60.316406 216.648438 71.644531 L 186.6875 123.558594 L 39.992188 123.558594 C 18.546875 123.558594 0.992188 141.101562 0.992188 162.546875 Z M 46.710938 163.023438 C 46.710938 159.910156 49.261719 157.371094 52.359375 157.371094 L 140.984375 157.371094 C 144.097656 157.371094 146.632812 159.921875 146.632812 163.023438 L 146.632812 185.648438 C 146.632812 188.761719 144.082031 191.300781 140.984375 191.300781 L 52.375 191.300781 C 49.261719 191.300781 46.722656 188.75 46.722656 185.648438 L 46.722656 163.023438 Z M 46.710938 163.023438 " fill-opacity="1" fill-rule="nonzero"/></g><path fill="#ffffff" d="M 291.882812 264.113281 C 286.753906 264.863281 281.738281 265.972656 276.851562 267.414062 C 290.429688 276.40625 299.394531 291.828125 299.394531 309.339844 C 299.394531 337.097656 276.894531 359.597656 249.136719 359.597656 C 230.484375 359.597656 214.214844 349.421875 205.539062 334.332031 C 203.015625 341.21875 201.171875 348.457031 200.074219 355.921875 C 190.21875 423.660156 242.476562 481.789062 308.316406 481.789062 L 308.316406 513.550781 C 270.597656 513.550781 235.140625 498.867188 208.476562 472.203125 C 181.816406 445.539062 167.128906 410.085938 167.128906 372.367188 C 167.128906 334.648438 181.816406 299.191406 208.476562 272.53125 C 235.140625 245.867188 270.597656 231.179688 308.316406 231.179688 L 308.316406 262.945312 C 302.925781 262.917969 297.433594 263.304688 291.882812 264.113281 Z M 291.882812 264.113281 " fill-opacity="1" fill-rule="nonzero"/><g clip-path="url(#c41643f1db)"><path fill="#ffffff" d="M 339.648438 0 L 355.269531 0 L 355.269531 600.042969 L 339.648438 600.042969 Z M 339.648438 0 " fill-opacity="1" fill-rule="nonzero"/></g><g fill="#ffffff" fill-opacity="1"><g transform="translate(387.217016, 270.750008)"><g><path d="M 36.140625 -92.671875 L 36.140625 0 L 6.109375 0 L 6.109375 -92.671875 Z M 36.140625 -92.671875 "/></g></g></g><g fill="#ffffff" fill-opacity="1"><g transform="translate(429.604386, 270.750008)"><g><path d="M 6.109375 0 L 6.109375 -92.859375 L 31.515625 -92.859375 L 56.53125 -49.859375 L 56.53125 -92.671875 L 86.75 -92.671875 L 86.75 0 L 61.359375 -0.1875 L 36.140625 -43 L 36.140625 0 Z M 6.109375 0 "/></g></g></g><g fill="#ffffff" fill-opacity="1"><g transform="translate(522.404351, 270.750008)"><g><path d="M 6.109375 0 L 6.109375 -92.859375 L 31.515625 -92.859375 L 56.53125 -49.859375 L 56.53125 -92.671875 L 86.75 -92.671875 L 86.75 0 L 61.359375 -0.1875 L 36.140625 -43 L 36.140625 0 Z M 6.109375 0 "/></g></g></g><g fill="#ffffff" fill-opacity="1"><g transform="translate(615.204327, 270.750008)"><g><path d="M 48.5625 1.484375 C 34.71875 1.484375 23.992188 -2.6875 16.390625 -11.03125 C 8.796875 -19.375 5 -31.144531 5 -46.34375 C 5 -61.664062 8.796875 -73.460938 16.390625 -81.734375 C 23.992188 -90.015625 34.71875 -94.15625 48.5625 -94.15625 C 62.53125 -94.15625 73.28125 -90.015625 80.8125 -81.734375 C 88.351562 -73.460938 92.125 -61.664062 92.125 -46.34375 C 92.125 -31.144531 88.351562 -19.375 80.8125 -11.03125 C 73.28125 -2.6875 62.53125 1.484375 48.5625 1.484375 Z M 48.5625 -24.65625 C 52.882812 -24.65625 56.25 -26.535156 58.65625 -30.296875 C 61.070312 -34.066406 62.34375 -39.414062 62.46875 -46.34375 C 62.34375 -53.382812 61.070312 -58.789062 58.65625 -62.5625 C 56.25 -66.332031 52.882812 -68.21875 48.5625 -68.21875 C 44.113281 -68.21875 40.679688 -66.332031 38.265625 -62.5625 C 35.859375 -58.789062 34.65625 -53.382812 34.65625 -46.34375 C 34.65625 -39.414062 35.859375 -34.066406 38.265625 -30.296875 C 40.679688 -26.535156 44.113281 -24.65625 48.5625 -24.65625 Z M 48.5625 -24.65625 "/></g></g></g><g fill="#ffffff" fill-opacity="1"><g transform="translate(712.267113, 270.750008)"><g><path d="M 58.390625 -38.734375 C 57.023438 -29.347656 53.191406 -24.65625 46.890625 -24.65625 C 43.066406 -24.65625 40.070312 -26.535156 37.90625 -30.296875 C 35.738281 -34.066406 34.65625 -39.414062 34.65625 -46.34375 C 34.65625 -53.382812 35.738281 -58.789062 37.90625 -62.5625 C 40.070312 -66.332031 43.066406 -68.21875 46.890625 -68.21875 C 49.734375 -68.21875 52.175781 -66.976562 54.21875 -64.5 C 56.257812 -62.03125 57.648438 -58.507812 58.390625 -53.9375 L 87.484375 -58.578125 C 85.140625 -69.941406 80.445312 -78.710938 73.40625 -84.890625 C 66.363281 -91.066406 57.460938 -94.15625 46.703125 -94.15625 C 33.359375 -94.15625 23.070312 -90.015625 15.84375 -81.734375 C 8.613281 -73.460938 5 -61.664062 5 -46.34375 C 5 -31.144531 8.613281 -19.375 15.84375 -11.03125 C 23.070312 -2.6875 33.359375 1.484375 46.703125 1.484375 C 57.460938 1.484375 66.363281 -1.632812 73.40625 -7.875 C 80.445312 -14.113281 85.140625 -22.859375 87.484375 -34.109375 Z M 58.390625 -38.734375 "/></g></g></g><g fill="#ffffff" fill-opacity="1"><g transform="translate(804.696415, 270.750008)"><g><path d="M 36.140625 -69.515625 L 36.140625 -57.453125 L 77.109375 -57.453125 L 77.109375 -35.21875 L 36.140625 -35.21875 L 36.140625 -23.171875 L 77.109375 -23.171875 L 77.109375 0 L 6.109375 0 L 6.109375 -92.671875 L 77.109375 -92.671875 L 77.109375 -69.515625 Z M 36.140625 -69.515625 "/></g></g></g><g fill="#ffffff" fill-opacity="1"><g transform="translate(888.044007, 270.750008)"><g><path d="M 6.109375 0 L 6.109375 -92.859375 L 31.515625 -92.859375 L 56.53125 -49.859375 L 56.53125 -92.671875 L 86.75 -92.671875 L 86.75 0 L 61.359375 -0.1875 L 36.140625 -43 L 36.140625 0 Z M 6.109375 0 "/></g></g></g><g fill="#ffffff" fill-opacity="1"><g transform="translate(980.84396, 270.750008)"><g><path d="M 86 -66.734375 L 60.796875 -66.734375 L 60.796875 0 L 30.765625 0 L 30.765625 -66.734375 L 5.375 -66.734375 L 5.375 -92.671875 L 86 -92.671875 Z M 86 -66.734375 "/></g></g></g><g fill="#ffffff" fill-opacity="1"><g transform="translate(387.217016, 426.000002)"><g><path d="M 55.046875 -92.671875 C 65.179688 -92.671875 73 -90.046875 78.5 -84.796875 C 84 -79.546875 86.75 -72.101562 86.75 -62.46875 C 86.75 -53.445312 84.210938 -46.398438 79.140625 -41.328125 C 74.078125 -36.265625 66.847656 -33.425781 57.453125 -32.8125 L 36.140625 -32.8125 L 36.140625 0 L 6.109375 0 L 6.109375 -92.671875 Z M 50.96875 -55.609375 C 56.90625 -55.609375 59.875 -57.894531 59.875 -62.46875 C 59.875 -67.164062 56.90625 -69.515625 50.96875 -69.515625 L 36.140625 -69.515625 L 36.140625 -55.609375 Z M 50.96875 -55.609375 "/></g></g></g><g fill="#ffffff" fill-opacity="1"><g transform="translate(501.851964, 426.000002)"><g><path d="M 86.75 -92.671875 L 86.75 0 L 56.53125 0 L 56.53125 -33.359375 L 36.140625 -33.359375 L 36.140625 0 L 6.109375 0 L 6.109375 -92.671875 L 36.140625 -92.671875 L 36.140625 -59.3125 L 56.53125 -59.3125 L 56.53125 -92.671875 Z M 86.75 -92.671875 "/></g></g></g><g fill="#ffffff" fill-opacity="1"><g transform="translate(618.525653, 426.000002)"><g><path d="M 48.5625 1.484375 C 34.71875 1.484375 23.992188 -2.6875 16.390625 -11.03125 C 8.796875 -19.375 5 -31.144531 5 -46.34375 C 5 -61.664062 8.796875 -73.460938 16.390625 -81.734375 C 23.992188 -90.015625 34.71875 -94.15625 48.5625 -94.15625 C 62.53125 -94.15625 73.28125 -90.015625 80.8125 -81.734375 C 88.351562 -73.460938 92.125 -61.664062 92.125 -46.34375 C 92.125 -31.144531 88.351562 -19.375 80.8125 -11.03125 C 73.28125 -2.6875 62.53125 1.484375 48.5625 1.484375 Z M 48.5625 -24.65625 C 52.882812 -24.65625 56.25 -26.535156 58.65625 -30.296875 C 61.070312 -34.066406 62.34375 -39.414062 62.46875 -46.34375 C 62.34375 -53.382812 61.070312 -58.789062 58.65625 -62.5625 C 56.25 -66.332031 52.882812 -68.21875 48.5625 -68.21875 C 44.113281 -68.21875 40.679688 -66.332031 38.265625 -62.5625 C 35.859375 -58.789062 34.65625 -53.382812 34.65625 -46.34375 C 34.65625 -39.414062 35.859375 -34.066406 38.265625 -30.296875 C 40.679688 -26.535156 44.113281 -24.65625 48.5625 -24.65625 Z M 48.5625 -24.65625 "/></g></g></g><g fill="#ffffff" fill-opacity="1"><g transform="translate(739.462164, 426.000002)"><g><path d="M 86 -66.734375 L 60.796875 -66.734375 L 60.796875 0 L 30.765625 0 L 30.765625 -66.734375 L 5.375 -66.734375 L 5.375 -92.671875 L 86 -92.671875 Z M 86 -66.734375 "/></g></g></g><g fill="#ffffff" fill-opacity="1"><g transform="translate(854.838471, 426.000002)"><g><path d="M 48.5625 1.484375 C 34.71875 1.484375 23.992188 -2.6875 16.390625 -11.03125 C 8.796875 -19.375 5 -31.144531 5 -46.34375 C 5 -61.664062 8.796875 -73.460938 16.390625 -81.734375 C 23.992188 -90.015625 34.71875 -94.15625 48.5625 -94.15625 C 62.53125 -94.15625 73.28125 -90.015625 80.8125 -81.734375 C 88.351562 -73.460938 92.125 -61.664062 92.125 -46.34375 C 92.125 -31.144531 88.351562 -19.375 80.8125 -11.03125 C 73.28125 -2.6875 62.53125 1.484375 48.5625 1.484375 Z M 48.5625 -24.65625 C 52.882812 -24.65625 56.25 -26.535156 58.65625 -30.296875 C 61.070312 -34.066406 62.34375 -39.414062 62.46875 -46.34375 C 62.34375 -53.382812 61.070312 -58.789062 58.65625 -62.5625 C 56.25 -66.332031 52.882812 -68.21875 48.5625 -68.21875 C 44.113281 -68.21875 40.679688 -66.332031 38.265625 -62.5625 C 35.859375 -58.789062 34.65625 -53.382812 34.65625 -46.34375 C 34.65625 -39.414062 35.859375 -34.066406 38.265625 -30.296875 C 40.679688 -26.535156 44.113281 -24.65625 48.5625 -24.65625 Z M 48.5625 -24.65625 "/></g></g></g><g fill="#ffffff" fill-opacity="1"><g transform="translate(975.775005, 426.000002)"><g><path d="M 47.078125 1.296875 C 60.796875 1.421875 71.359375 -0.984375 78.765625 -5.921875 C 86.179688 -10.867188 89.890625 -17.976562 89.890625 -27.25 C 89.890625 -32.4375 88.5 -36.757812 85.71875 -40.21875 C 82.945312 -43.675781 79.394531 -46.515625 75.0625 -48.734375 C 70.738281 -50.960938 66.101562 -52.785156 61.15625 -54.203125 C 56.21875 -55.628906 51.585938 -56.835938 47.265625 -57.828125 C 42.941406 -58.816406 39.390625 -59.835938 36.609375 -60.890625 C 33.828125 -61.941406 32.4375 -63.269531 32.4375 -64.875 C 32.4375 -68.945312 37.132812 -70.984375 46.53125 -70.984375 C 55.175781 -70.984375 60.671875 -67.21875 63.015625 -59.6875 L 87.484375 -66.359375 C 85.015625 -75.253906 80.226562 -82.109375 73.125 -86.921875 C 66.019531 -91.742188 57.15625 -94.15625 46.53125 -94.15625 C 32.8125 -94.15625 22.242188 -91.679688 14.828125 -86.734375 C 7.410156 -81.796875 3.703125 -74.753906 3.703125 -65.609375 C 3.703125 -60.421875 5.09375 -56.128906 7.875 -52.734375 C 10.65625 -49.335938 14.238281 -46.554688 18.625 -44.390625 C 23.007812 -42.234375 27.644531 -40.472656 32.53125 -39.109375 C 37.414062 -37.753906 42.050781 -36.582031 46.4375 -35.59375 C 50.820312 -34.601562 54.40625 -33.550781 57.1875 -32.4375 C 59.96875 -31.320312 61.359375 -29.835938 61.359375 -27.984375 C 61.359375 -26.128906 60.117188 -24.707031 57.640625 -23.71875 C 55.171875 -22.738281 51.648438 -22.25 47.078125 -22.25 C 38.554688 -22.25 33.117188 -25.832031 30.765625 -33 L 6.109375 -26.328125 C 8.710938 -17.421875 13.566406 -10.554688 20.671875 -5.734375 C 27.773438 -0.921875 36.578125 1.421875 47.078125 1.296875 Z M 47.078125 1.296875 "/></g></g></g></svg>